<?xml version="1.0" standalone="no"?>
<!DOCTYPE svg PUBLIC "-//W3C//DTD SVG 20010904//EN"
 "http://www.w3.org/TR/2001/REC-SVG-20010904/DTD/svg10.dtd">
<svg version="1.0" xmlns="http://www.w3.org/2000/svg"
 width="512.000000pt" height="512.000000pt" viewBox="0 0 512.000000 512.000000"
 preserveAspectRatio="xMidYMid meet">
<metadata>
Created by potrace 1.11, written by Peter Selinger 2001-2013
</metadata>
<g transform="translate(0.000000,512.000000) scale(0.100000,-0.100000)"
fill="#000000" stroke="none">
<path d="M727 5100 c-84 -18 -105 -26 -207 -72 -126 -57 -277 -185 -359 -307
-55 -81 -103 -184 -133 -286 l-23 -80 -2 -1770 c-2 -1047 1 -1786 7 -1810 5
-22 12 -55 15 -73 3 -19 20 -71 38 -117 119 -298 374 -509 692 -571 57 -11
381 -13 1795 -14 1163 0 1745 4 1785 11 33 5 73 13 90 16 87 15 241 91 337
164 163 126 295 330 333 515 3 16 9 43 13 59 4 17 7 829 7 1805 l0 1775 -23
85 c-90 338 -360 597 -700 670 -83 18 -165 18 -1832 18 -1672 0 -1749 0 -1833
-18z m3617 -296 c227 -59 396 -226 456 -450 18 -66 19 -142 17 -1809 -1 -957
-6 -1753 -10 -1769 -47 -173 -175 -333 -328 -408 -146 -72 -13 -68 -1939 -65
-954 1 -1748 6 -1764 10 -185 50 -338 176 -418 347 -61 129 -58 14 -58 1895 0
1909 -4 1778 68 1925 51 105 168 222 273 273 144 70 14 65 1919 66 1522 1
1732 -1 1784 -15z"/>
<path d="M1492 4304 c-129 -29 -260 -132 -317 -249 l-30 -60 -195 0 c-222 -1
-246 -7 -287 -80 -40 -71 -17 -152 55 -197 34 -21 47 -22 233 -23 l198 0 21
-48 c73 -160 239 -269 415 -270 188 -2 356 100 434 263 l26 55 1160 0 c1143 0
1161 0 1195 20 22 13 44 38 59 68 21 43 22 51 11 96 -6 27 -21 58 -33 69 -53
50 -14 49 -1242 47 l-1150 0 -26 55 c-52 111 -179 218 -296 249 -62 17 -170
19 -231 5z m193 -314 c109 -67 103 -240 -9 -294 -74 -35 -140 -25 -197 29 -70
65 -71 171 -2 240 57 57 141 67 208 25z"/>
<path d="M3376 3005 c-123 -43 -209 -116 -266 -227 l-35 -68 -1161 0 -1161 0
-33 -22 c-55 -38 -75 -72 -74 -129 1 -54 19 -87 68 -123 27 -21 33 -21 1195
-24 l1167 -2 29 -61 c54 -114 188 -219 315 -248 146 -34 317 13 424 116 51 48
111 135 117 168 4 19 15 20 209 25 224 6 241 9 278 65 49 70 26 172 -47 213
-36 20 -52 22 -232 22 l-194 0 -33 64 c-34 66 -112 151 -171 187 -73 44 -134
62 -231 65 -80 3 -106 0 -164 -21z m248 -309 c47 -35 69 -79 69 -136 0 -144
-170 -223 -277 -129 -94 82 -76 224 35 282 49 26 127 19 173 -17z"/>
<path d="M2170 1740 c-148 -22 -276 -113 -349 -251 l-34 -64 -517 0 -517 0
-42 -28 c-48 -32 -64 -63 -63 -129 0 -55 27 -99 75 -125 29 -15 85 -17 550
-18 l518 0 20 -44 c57 -129 195 -240 329 -267 150 -30 319 18 422 120 44 44
101 126 112 164 4 12 10 23 14 23 4 1 383 2 842 3 762 2 838 3 867 19 102 54
104 202 3 261 -34 20 -48 21 -870 22 -459 1 -838 2 -841 3 -3 0 -13 18 -21 39
-33 82 -143 196 -221 230 -91 39 -189 54 -277 42z m122 -307 c144 -45 156
-244 20 -312 -107 -53 -242 30 -242 148 0 75 35 130 102 161 48 21 62 22 120
3z"/>
</g>
</svg>
